<svg width="352" height="209" viewBox="0 0 352 209" fill="none" xmlns="http://www.w3.org/2000/svg">
<path d="M0 6C0 3.23858 2.23858 1 5 1H84C86.7614 1 89 3.23858 89 6V87C89 89.7614 86.7614 92 84 92H5C2.23858 92 0 89.7614 0 87V6Z" fill="white"/>
<path d="M19 18.0625L23.5443 68.3105L43.9349 74.9375L64.4557 68.3105L69 18.0625H19ZM59.1302 34.2998H35.1979L35.7318 40.5713H58.5964L56.8255 59.4111L44.0781 62.8389V62.877H43.9349L31.0833 59.4111L30.3021 49.7881H36.513L36.9688 54.625L43.9349 56.4658L50.9271 54.625L51.7083 46.7285H29.9766L28.3099 28.2441H59.7031L59.1302 34.2998Z" fill="#F9A826"/>
<path d="M0 84H89V92H0V84Z" fill="#F9A826"/>
<path d="M263 6C263 3.23858 265.239 1 268 1H347C349.761 1 352 3.23858 352 6V87C352 89.7614 349.761 92 347 92H268C265.239 92 263 89.7614 263 87V6Z" fill="white"/>
<path d="M278.478 19V72H329.75V19H278.478ZM306.38 60.3353C306.38 65.4933 303.45 67.8475 299.182 67.8475C295.325 67.8475 293.093 65.7891 291.949 63.2929L295.874 60.844C296.629 62.2281 297.316 63.3993 298.976 63.3993C300.555 63.3993 301.562 62.7605 301.562 60.2643V43.335H306.38V60.3353ZM317.779 67.8475C313.304 67.8475 310.409 65.6471 309.001 62.7605L312.926 60.4181C313.956 62.1571 315.307 63.4467 317.676 63.4467C319.667 63.4467 320.949 62.4174 320.949 60.9859C320.949 59.2824 319.644 58.679 317.436 57.6734L316.234 57.1411C312.755 55.615 310.454 53.6866 310.454 49.6288C310.454 45.8904 313.213 43.0511 317.504 43.0511C320.571 43.0511 322.769 44.1513 324.348 47.0379L320.594 49.5223C319.77 47.9962 318.878 47.3929 317.493 47.3929C316.085 47.3929 315.193 48.3156 315.193 49.5223C315.193 51.0129 316.085 51.6163 318.157 52.5509L319.358 53.0833C323.456 54.8933 325.756 56.7507 325.756 60.915C325.756 65.3868 322.345 67.8475 317.779 67.8475Z" fill="#F9A826"/>
<path d="M131 5C131 2.23858 133.239 0 136 0H215C217.761 0 220 2.23858 220 5V86C220 88.7614 217.761 91 215 91H136C133.239 91 131 88.7614 131 86V5Z" fill="white"/>
<path d="M199.085 39.4298C198.226 36.0501 196.596 33.5017 193.125 33.5017H188.65V38.6861C188.65 42.7111 185.168 46.1017 181.194 46.1017H169.275C166.016 46.1017 163.315 48.8361 163.315 52.0408V63.1751C163.315 66.347 166.127 68.2064 169.275 69.1142C173.047 70.197 176.674 70.3939 181.194 69.1142C184.197 68.2611 187.154 66.5439 187.154 63.1751V58.7236H175.246V57.2361H193.125C196.596 57.2361 197.88 54.8626 199.085 51.308C200.335 47.6439 200.279 44.122 199.085 39.4298ZM181.942 61.6876C183.181 61.6876 184.185 62.683 184.185 63.908C184.185 65.1439 183.181 66.1392 181.942 66.1392C180.714 66.1392 179.699 65.1329 179.699 63.908C179.71 62.672 180.714 61.6876 181.942 61.6876ZM168.728 44.6361H180.647C183.962 44.6361 186.607 41.9564 186.607 38.697V27.5517C186.607 24.3798 183.884 22.0064 180.647 21.4705C176.652 20.8251 172.31 20.858 168.728 21.4814C163.683 22.3564 162.768 24.183 162.768 27.5626V32.0142H174.699V33.5017H158.292C154.822 33.5017 151.786 35.547 150.837 39.4298C149.743 43.8814 149.699 46.6595 150.837 51.308C151.685 54.7642 153.705 57.2361 157.176 57.2361H161.272V51.8986C161.272 48.0376 164.676 44.6361 168.728 44.6361ZM167.98 29.0392C166.741 29.0392 165.737 28.0439 165.737 26.8189C165.748 25.583 166.741 24.5876 167.98 24.5876C169.208 24.5876 170.223 25.5939 170.223 26.8189C170.223 28.0439 169.219 29.0392 167.98 29.0392Z" fill="#F9A826"/>
<path d="M69 123C69 120.239 71.2386 118 74 118H153C155.761 118 158 120.239 158 123V204C158 206.761 155.761 209 153 209H74C71.2386 209 69 206.761 69 204V123Z" fill="white"/>
<path d="M88 136L92.5443 185.475L113 192L133.456 185.475L138 136H88ZM128.768 146L128.143 151.913L113.13 158.075L113.091 158.087H127.609L125.943 176.412L113.156 180L100.292 176.35L99.4583 167.112H105.826L106.242 171.9L113.091 173.562L120.214 171.638L120.695 163.938L99.0417 163.875V163.862L99.0156 163.875L98.5469 158.087L113.143 152.25L113.99 151.913H97.987L97.2318 146H128.768Z" fill="#F9A826"/>
<path d="M220 123C220 120.239 222.239 118 225 118H304C306.761 118 309 120.239 309 123V204C309 206.761 306.761 209 304 209H225C222.239 209 220 206.761 220 204V123Z" fill="white"/>
<path d="M241 144.477C241 138.691 246.584 134 253.473 134H274.875C281.764 134 287.348 138.691 287.348 144.477C287.348 148.141 285.109 151.366 281.718 153.239C285.109 155.111 287.348 158.336 287.348 162C287.348 167.787 281.764 172.478 274.875 172.478H274.604C271.375 172.478 268.432 171.447 266.217 169.755V179.409C266.217 185.272 260.487 190 253.54 190C246.669 190 241 185.323 241 179.523C241 175.859 243.239 172.634 246.63 170.761C243.239 168.889 241 165.664 241 162C241 158.336 243.239 155.111 246.631 153.239C243.239 151.366 241 148.141 241 144.477ZM262.131 154.955H253.473C248.841 154.955 245.086 158.109 245.086 162C245.086 165.876 248.812 169.021 253.419 169.045C253.437 169.045 253.455 169.045 253.473 169.045H262.131V154.955ZM266.217 162C266.217 165.891 269.972 169.046 274.604 169.046H274.875C279.507 169.046 283.262 165.891 283.262 162C283.262 158.109 279.507 154.955 274.875 154.955H274.604C269.972 154.955 266.217 158.109 266.217 162ZM253.473 172.478C253.455 172.478 253.437 172.477 253.419 172.477C248.812 172.502 245.086 175.647 245.086 179.523C245.086 183.399 248.891 186.568 253.54 186.568C258.264 186.568 262.131 183.348 262.131 179.409V172.478H253.473ZM253.473 137.432C248.841 137.432 245.086 140.586 245.086 144.477C245.086 148.368 248.841 151.523 253.473 151.523H262.131V137.432H253.473ZM266.217 151.523H274.875C279.507 151.523 283.262 148.368 283.262 144.477C283.262 140.586 279.507 137.432 274.875 137.432H266.217V151.523Z" fill="#F9A826"/>
</svg>
