<svg width="50" height="54" viewBox="0 0 50 54" fill="none" xmlns="http://www.w3.org/2000/svg">
<path d="M25 20.7492C23.8227 20.7497 22.6719 21.1167 21.6932 21.8038C20.7145 22.4909 19.9519 23.4673 19.5016 24.6096C19.0514 25.7518 18.9338 27.0085 19.1638 28.2209C19.3937 29.4333 19.9609 30.5468 20.7935 31.4208C21.6262 32.2948 22.6869 32.8899 23.8417 33.1308C24.9964 33.3718 26.1932 33.2479 27.2809 32.7747C28.3686 32.3016 29.2982 31.5004 29.9522 30.4725C30.6063 29.4446 30.9554 28.2362 30.9554 27C30.9542 25.3422 30.3263 23.7526 29.2096 22.5806C28.093 21.4085 26.5789 20.7498 25 20.7492ZM38.9185 15.9445C38.6155 15.1381 38.1578 14.4056 37.574 13.7926C36.9902 13.1796 36.2926 12.6991 35.5246 12.3809C33.1808 11.4094 27.6004 11.6273 25 11.6273C22.3996 11.6273 16.8248 11.4012 14.4743 12.3809C13.7063 12.6991 13.0087 13.1796 12.4249 13.7926C11.8411 14.4056 11.3834 15.1381 11.0804 15.9445C10.1562 18.4055 10.3627 24.2707 10.3627 26.9988C10.3627 29.727 10.1562 35.5852 11.0848 38.0543C11.3879 38.8607 11.8455 39.5932 12.4294 40.2062C13.0132 40.8192 13.7108 41.2998 14.4788 41.618C16.8225 42.5895 22.4029 42.3715 25.0045 42.3715C27.606 42.3715 33.1786 42.5977 35.529 41.618C36.2971 41.2998 36.9946 40.8192 37.5785 40.2062C38.1623 39.5932 38.6199 38.8607 38.923 38.0543C39.8549 35.5934 39.6406 29.7281 39.6406 27C39.6406 24.2719 39.8549 18.4148 38.923 15.9457L38.9185 15.9445ZM25 36.6094C23.1899 36.6094 21.4205 36.0458 19.9155 34.9899C18.4105 33.934 17.2375 32.4332 16.5449 30.6773C15.8522 28.9215 15.6709 26.9893 16.0241 25.1253C16.3772 23.2613 17.2488 21.549 18.5287 20.2051C19.8086 18.8612 21.4393 17.946 23.2146 17.5753C24.9898 17.2045 26.83 17.3948 28.5022 18.1221C30.1745 18.8494 31.6038 20.0811 32.6094 21.6613C33.615 23.2416 34.1518 25.0994 34.1518 27C34.1533 28.2624 33.9175 29.5126 33.4581 30.6792C32.9987 31.8457 32.3247 32.9057 31.4746 33.7983C30.6245 34.6909 29.615 35.3987 28.504 35.881C27.393 36.3634 26.2022 36.6109 25 36.6094ZM34.529 19.2305C34.1065 19.2307 33.6934 19.0993 33.3419 18.853C32.9905 18.6067 32.7165 18.2565 32.5547 17.8467C32.3928 17.4368 32.3504 16.9858 32.4327 16.5506C32.5149 16.1155 32.7183 15.7157 33.017 15.4019C33.3157 15.0881 33.6963 14.8744 34.1107 14.7877C34.5252 14.7011 34.9547 14.7454 35.3451 14.9152C35.7355 15.0849 36.0692 15.3724 36.304 15.7413C36.5387 16.1101 36.6641 16.5438 36.6641 16.9875C36.6652 17.2821 36.611 17.5741 36.5045 17.8467C36.3979 18.1192 36.2412 18.367 36.0433 18.5759C35.8453 18.7847 35.6101 18.9504 35.351 19.0635C35.0919 19.1767 34.8141 19.235 34.5335 19.2352L34.529 19.2305ZM44.6429 0.75H5.35714C3.93634 0.75 2.57373 1.34263 1.56907 2.39752C0.564412 3.45242 0 4.88316 0 6.375L0 47.625C0 49.1168 0.564412 50.5476 1.56907 51.6025C2.57373 52.6574 3.93634 53.25 5.35714 53.25H44.6429C46.0637 53.25 47.4263 52.6574 48.4309 51.6025C49.4356 50.5476 50 49.1168 50 47.625V6.375C50 4.88316 49.4356 3.45242 48.4309 2.39752C47.4263 1.34263 46.0637 0.75 44.6429 0.75ZM42.7321 34.7344C42.5882 37.7379 41.9353 40.3992 39.8471 42.5859C37.7589 44.7727 35.2266 45.4723 32.3694 45.6152C29.4219 45.7898 20.5848 45.7898 17.6373 45.6152C14.7768 45.4641 12.2511 44.7773 10.1596 42.5859C8.06808 40.3945 7.41071 37.732 7.27455 34.7344C7.10826 31.6383 7.10826 22.3582 7.27455 19.2656C7.41853 16.2621 8.06362 13.6008 10.1596 11.4141C12.2556 9.22734 14.7879 8.53594 17.6373 8.39297C20.5848 8.21836 29.4219 8.21836 32.3694 8.39297C35.2299 8.54414 37.7634 9.23086 39.8471 11.4223C41.9308 13.6137 42.596 16.2762 42.7321 19.2797C42.8984 22.3641 42.8984 31.6359 42.7321 34.7344Z" fill="black"/>
</svg>
