<svg width="50" height="54" viewBox="0 0 50 54" fill="none" xmlns="http://www.w3.org/2000/svg">
<path d="M46.4286 0.75H3.56027C1.59598 0.75 0 2.44922 0 4.53516V49.4648C0 51.5508 1.59598 53.25 3.56027 53.25H46.4286C48.3929 53.25 50 51.5508 50 49.4648V4.53516C50 2.44922 48.3929 0.75 46.4286 0.75ZM15.1116 45.75H7.70089V20.6953H15.1228V45.75H15.1116ZM11.4062 17.2734C9.02902 17.2734 7.10938 15.2461 7.10938 12.7617C7.10938 10.2773 9.02902 8.25 11.4062 8.25C13.7723 8.25 15.7031 10.2773 15.7031 12.7617C15.7031 15.2578 13.7835 17.2734 11.4062 17.2734ZM42.8906 45.75H35.4799V33.5625C35.4799 30.6562 35.4241 26.918 31.6295 26.918C27.7679 26.918 27.1763 30.082 27.1763 33.3516V45.75H19.7656V20.6953H26.875V24.1172H26.9754C27.9688 22.1484 30.3906 20.0742 33.9955 20.0742C41.4955 20.0742 42.8906 25.2656 42.8906 32.0156V45.75Z" fill="black"/>
</svg>
