<svg width="50" height="54" viewBox="0 0 50 54" fill="none" xmlns="http://www.w3.org/2000/svg">
<path d="M44.6429 0.75H5.35714C2.39955 0.75 0 3.26953 0 6.375V47.625C0 50.7305 2.39955 53.25 5.35714 53.25H44.6429C47.6004 53.25 50 50.7305 50 47.625V6.375C50 3.26953 47.6004 0.75 44.6429 0.75ZM30.9487 45.7148C30.0112 45.8906 29.6652 45.2812 29.6652 44.7773C29.6652 44.1445 29.6875 40.9102 29.6875 38.2969C29.6875 36.4688 29.1071 35.3086 28.4263 34.6992C32.5558 34.2188 36.9085 33.6211 36.9085 26.1328C36.9085 24 36.183 22.9336 35 21.5625C35.1897 21.0586 35.8259 18.9844 34.8103 16.2891C33.2589 15.7852 29.7098 18.3867 29.7098 18.3867C28.2366 17.9531 26.6406 17.7305 25.067 17.7305C23.4933 17.7305 21.8973 17.9531 20.4241 18.3867C20.4241 18.3867 16.875 15.7852 15.3237 16.2891C14.308 18.9727 14.933 21.0469 15.1339 21.5625C13.9509 22.9336 13.3929 24 13.3929 26.1328C13.3929 33.5859 17.5558 34.2188 21.6853 34.6992C21.1496 35.2031 20.6696 36.0703 20.5022 37.3125C19.442 37.8164 16.7299 38.6836 15.1116 35.6836C14.096 33.832 12.2656 33.6797 12.2656 33.6797C10.4576 33.6562 12.1429 34.875 12.1429 34.875C13.3482 35.4609 14.1964 37.7109 14.1964 37.7109C15.279 41.1914 20.4576 40.0195 20.4576 40.0195C20.4576 41.6484 20.4799 44.2969 20.4799 44.7773C20.4799 45.2812 20.1451 45.8906 19.1964 45.7148C11.8304 43.125 6.67411 35.7656 6.67411 27.1641C6.67411 16.4062 14.5089 8.23828 24.7545 8.23828C35 8.23828 43.3036 16.4062 43.3036 27.1641C43.3147 35.7656 38.3147 43.1367 30.9487 45.7148ZM20 38.5547C19.7879 38.6016 19.5871 38.5078 19.5647 38.3555C19.5424 38.1797 19.6875 38.0273 19.8996 37.9805C20.1116 37.957 20.3125 38.0508 20.3348 38.2031C20.3683 38.3555 20.2232 38.5078 20 38.5547ZM18.9397 38.4492C18.9397 38.6016 18.7723 38.7305 18.5491 38.7305C18.3036 38.7539 18.1362 38.625 18.1362 38.4492C18.1362 38.2969 18.3036 38.168 18.5268 38.168C18.7388 38.1445 18.9397 38.2734 18.9397 38.4492ZM17.4107 38.3203C17.3661 38.4727 17.1429 38.543 16.9531 38.4727C16.7411 38.4258 16.596 38.25 16.6406 38.0977C16.6853 37.9453 16.9085 37.875 17.0982 37.9219C17.3214 37.9922 17.4665 38.168 17.4107 38.3203ZM16.0379 37.6875C15.9375 37.8164 15.7254 37.793 15.558 37.6172C15.3906 37.4648 15.346 37.2422 15.4576 37.1367C15.558 37.0078 15.7701 37.0312 15.9375 37.207C16.0826 37.3594 16.1384 37.5938 16.0379 37.6875ZM15.0223 36.6211C14.9219 36.6914 14.7321 36.6211 14.6094 36.4453C14.4866 36.2695 14.4866 36.0703 14.6094 35.9883C14.7321 35.8828 14.9219 35.9648 15.0223 36.1406C15.1451 36.3164 15.1451 36.5273 15.0223 36.6211ZM14.2969 35.4844C14.1964 35.5898 14.029 35.5312 13.9062 35.4141C13.7835 35.2617 13.7612 35.0859 13.8616 35.0039C13.9621 34.8984 14.1295 34.957 14.2522 35.0742C14.375 35.2266 14.3973 35.4023 14.2969 35.4844ZM13.5491 34.6172C13.5045 34.7227 13.3594 34.7461 13.2366 34.6641C13.0915 34.5938 13.0246 34.4648 13.0692 34.3594C13.1138 34.2891 13.2366 34.2539 13.3817 34.3125C13.5268 34.3945 13.5938 34.5234 13.5491 34.6172Z" fill="black"/>
</svg>
