<svg width="32" height="32" viewBox="0 0 32 32" fill="none" xmlns="http://www.w3.org/2000/svg">
<path d="M29.7143 0.25H2.27857C1.02143 0.25 0 1.26953 0 2.5211V29.4789C0 30.7305 1.02143 31.75 2.27857 31.75H29.7143C30.9715 31.75 32 30.7305 32 29.4789V2.5211C32 1.26953 30.9715 0.25 29.7143 0.25ZM9.67142 27.25H4.92857V12.2172H9.67859V27.25H9.67142ZM7.29997 10.164C5.77857 10.164 4.55 8.94766 4.55 7.45702C4.55 5.96638 5.77857 4.75 7.29997 4.75C8.81427 4.75 10.05 5.96638 10.05 7.45702C10.05 8.95468 8.82144 10.164 7.29997 10.164ZM27.45 27.25H22.7071V19.9375C22.7071 18.1938 22.6714 15.9508 20.2429 15.9508C17.7715 15.9508 17.3928 17.8492 17.3928 19.811V27.25H12.65V12.2172H17.2V14.2703H17.2643C17.9 13.089 19.45 11.8445 21.7571 11.8445C26.5571 11.8445 27.45 14.9594 27.45 19.0094V27.25Z" fill="white"/>
</svg>
